<svg xmlns="http://www.w3.org/2000/svg" width="195" height="195" viewBox="543.8 303.1 195.4 195.4"> <style> .a{ fill:#588CB8; } </style> <path d="M628.5 408.1c5.9 0 7.2-2.8 8.4-6.1h5.1v48.6h-7.6v-37.1h-5.9V408.1z" class="a"/> <path d="M669.5 438.5c0 8.2-3.7 12.6-11.7 12.6 -7.5 0-11.4-4.4-11.4-12.2v-1.2h7.2v1.7c0 3.5 1.5 4.8 4 4.8 2.7 0 4.2-1.3 4.2-6v-8.9c-1.3 2.8-3.7 4.3-7.1 4.3 -5.6 0-8.5-4-8.5-11.1v-8.9c0-7.8 4.1-12.2 11.6-12.2 7.5 0 11.6 4.4 11.6 12.2V438.5zM661.8 421.9v-8.8c0-3.5-1.5-4.7-4-4.7 -2.4 0-4 1.2-4 4.7v8.8c0 3.5 1.5 4.8 4 4.8C660.3 426.7 661.8 425.4 661.8 421.9z" class="a"/> <path d="M679.7 434.9v4.5c0 3.5 1.5 4.7 4 4.7s4-1.3 4-4.7v-10.7c0-3.5-1.5-4.8-4-4.8s-4 1.3-4 4.8v1.5h-7.2l1.4-28.2h20.1v6.9H680.7l-0.6 11.6c1.4-2.3 3.6-3.5 6.7-3.5 5.6 0 8.5 4 8.5 11.1v10.8c0 7.8-3.9 12.2-11.4 12.2 -7.5 0-11.4-4.4-11.4-12.2v-4L679.7 434.9 679.7 434.9z" class="a"/> <path d="M697.9 413.6c0-7.8 4.1-12.2 11.6-12.2 7.5 0 11.6 4.4 11.6 12.2v25.3c0 7.8-4.1 12.2-11.6 12.2 -7.5 0-11.6-4.4-11.6-12.2V413.6zM705.6 439.4c0 3.5 1.5 4.8 4 4.8 2.4 0 4-1.3 4-4.8v-26.2c0-3.5-1.5-4.8-4-4.8 -2.4 0-4 1.3-4 4.8V439.4z" class="a"/> <polygon points="551.8 349.8 543.8 349.8 543.8 303.1 591.6 303.1 591.6 311.1 551.8 311.1 " fill="#F4CB89"/> <polygon points="739.2 498.5 691.5 498.5 691.5 490.5 731.2 490.5 731.2 451.9 739.2 451.9 " class="a"/> <polygon points="681.5 498.5 543.8 498.5 543.8 359.8 551.8 359.8 551.8 490.5 681.5 490.5 " class="a"/> <polygon points="739.2 441.9 731.2 441.9 731.2 311.1 601.6 311.1 601.6 303.1 739.2 303.1 " class="a"/> <path d="M669 454.6h3.7v19h6.1v3.2h-9.9V454.6L669 454.6z" class="a"/> <path d="M693.4 476.8h-3.8l-0.6-4h-4.6l-0.6 4h-3.4l3.8-22.2h5.5L693.4 476.8zM684.9 469.7h3.6l-1.8-11.2L684.9 469.7z" class="a"/> <path d="M707.1 459.7v0.8c0 2.3-0.7 3.7-2.4 4.5 2 0.7 2.8 2.4 2.8 4.8v1.8c0 3.4-1.9 5.3-5.7 5.3h-5.9v-22.2h5.6C705.5 454.6 707.1 456.3 707.1 459.7zM699.7 457.7v5.9h1.5c1.4 0 2.2-0.6 2.2-2.3v-1.2c0-1.6-0.6-2.3-1.9-2.3H699.7zM699.7 466.8v6.8h2.1c1.3 0 1.9-0.5 1.9-2.2v-1.9c0-2.1-0.7-2.7-2.4-2.7H699.7z" class="a"/> <path d="M715.6 454.3c3.6 0 5.5 2 5.5 5.6v0.7h-3.5v-0.9c0-1.6-0.7-2.2-1.9-2.2s-1.9 0.6-1.9 2.2c0 4.6 7.3 5.4 7.3 11.8 0 3.6-1.9 5.6-5.6 5.6s-5.6-2-5.6-5.6v-1.4h3.5v1.6c0 1.6 0.7 2.2 1.9 2.2s1.9-0.6 1.9-2.2c0-4.6-7.3-5.4-7.3-11.8C710.1 456.4 712 454.3 715.6 454.3z" class="a"/> </svg>