<svg xmlns="http://www.w3.org/2000/svg" xmlns:xlink="http://www.w3.org/1999/xlink" enable-background="new 0 0 512 512" version="1.1" xml:space="preserve" width="512" height="512" style=""><rect id="backgroundrect" width="100%" height="100%" x="0" y="0" fill="none" stroke="none"/><linearGradient id="SVGID_1_" x1="0.5" x2="0.5" y1="1" y2="-1.7763568394002505e-15"><stop offset="0" style="stop-color:#E73827"/><stop offset="1" style="stop-color:#F85032"/></linearGradient><g class="currentLayer" style=""><title>Layer 1</title><circle cx="256.00000762939453" cy="255.99999618530273" fill="url(#SVGID_1_)" r="203.08995056152344" id="svg_1" class=""/><path d="M266.1438239398691,256.0000021511132 l95.52780334949493,-95.52780334949493 c2.555927848815918,-2.555927848815918 2.555927848815918,-6.629437857866288 0,-9.105492961406709 c-2.555927848815918,-2.555927848815918 -6.629437857866288,-2.555927848815918 -9.105492961406709,0 L256.9584582331869,246.89450918970647 L159.4338362518045,149.36988720832414 c-2.555927848815918,-2.555927848815918 -6.629437857866288,-2.555927848815918 -9.105492961406709,0 c-2.555927848815918,2.555927848815918 -2.555927848815918,6.629437857866288 0,9.105492961406709 L247.85296527178016,256.0000021511132 L150.3283432903978,353.5246241324956 c-2.555927848815918,2.555927848815918 -2.555927848815918,6.629437857866288 0,9.105492961406709 c1.277963924407959,1.277963924407959 2.9552915751934052,1.9169458866119387 4.5527464807033535,1.9169458866119387 c1.6773276507854464,0 3.2747825562953947,-0.6389819622039798 4.5527464807033535,-1.9169458866119387 l97.52462198138237,-97.52462198138237 l95.52780334949493,95.52780334949493 c1.277963924407959,1.277963924407959 2.9552915751934052,1.9169458866119387 4.5527464807033535,1.9169458866119387 c1.6773276507854464,0 3.2747825562953947,-0.6389819622039798 4.5527464807033535,-1.9169458866119387 c2.555927848815918,-2.555927848815918 2.555927848815918,-6.629437857866288 0,-9.105492961406709 L266.1438239398691,256.0000021511132 z" fill="#FFFFFF" id="svg_2" class=""/></g></svg>